<svg width="652" height="124" viewBox="0 0 652 124" fill="none" xmlns="http://www.w3.org/2000/svg">
<path d="M168.1 46.9001C166.3 40.5001 163.7 33.9001 155.1 33.9001C149.3 33.6001 144.4 38.0001 144.1 43.8001C144.1 44.1001 144.1 44.4001 144.1 44.7001C144.1 52.0001 148.7 55.3001 156.7 59.3001C164.6 63.3001 173.8 67.9001 173.8 78.9001C173.8 89.3001 165 97.4001 152 97.4001C148.7 97.3001 145.4 96.8001 142.3 95.9001C140.6 95.3001 139 94.7001 137.4 93.9001C136.2 88.9001 135.3 83.8001 134.8 78.7001L137.7 78.0001C139.2 84.0001 143.7 93.9001 153.8 93.9001C161.3 93.9001 165.7 89.3001 165.7 82.0001C165.7 74.7001 160.2 71.2001 152.9 67.2001C146.5 63.9001 136.6 58.8001 136.6 47.8001C136.6 38.3001 144.1 30.1001 156.9 30.1001C161.1 30.2001 165.3 31.0001 169.3 32.3001C169.7 35.8001 170.2 39.8001 171.1 46.0001L168.1 46.9001Z" fill="black"/>
<path d="M234.3 96.1001V93.5001C240 92.8001 241.1 92.6001 241.1 85.6001V69.0001C241.1 61.9001 238.7 57.5001 232.5 57.5001C228.4 57.9001 224.5 59.7001 221.5 62.6001C221.7 64.0001 221.8 65.4001 221.7 66.8001V86.0001C221.7 92.2001 222.6 92.8001 228.1 93.5001V96.1001H206.9V93.5001C213.1 92.8001 214 92.4001 214 86.0001V69.0001C214 61.7001 211.4 57.7001 205.4 57.7001C201.4 57.7001 197.7 60.3001 194.6 62.8001V86.0001C194.6 92.4001 195.5 93.1001 200.1 93.5001V96.1001H179.4V93.5001C185.8 92.8001 186.9 92.4001 186.9 86.0001V65.5001C186.9 59.1001 186.7 58.7001 180.9 57.8001V55.6001C185.6 54.8001 190.2 53.5001 194.6 51.6001V59.5001C196.6 58.2001 198.8 56.4001 201.9 54.4001C204.3 52.7001 207.1 51.8001 210.1 51.8001C215.1 51.9001 219.6 55.2001 221.1 60.0001C224 57.8001 226.8 56.0001 229.3 54.5001C231.5 52.9001 234.1 52.0001 236.8 51.9001C244.5 51.9001 249.4 57.4001 249.4 66.9001V85.9001C249.4 92.5001 250.3 93.0001 255.8 93.4001V96.0001H234.4L234.3 96.1001Z" fill="black"/>
<path d="M260.8 96.1002V93.5002C267 92.8002 267.6 92.4002 267.6 85.6002V65.3002C267.6 59.1002 267.4 58.9002 261.4 57.8002V55.4002C266.2 54.7002 270.8 53.4002 275.3 51.6002V85.6002C275.3 92.2002 276 92.9002 282.4 93.5002V96.1002H260.8ZM265.9 38.3002C265.9 35.5002 268.2 33.3002 271 33.2002C273.7 33.2002 275.8 35.3002 275.9 38.0002C275.9 38.1002 275.9 38.2002 275.9 38.3002C275.9 41.0002 273.7 43.3002 270.9 43.4002C268.1 43.1002 266 41.0002 265.9 38.3002Z" fill="black"/>
<path d="M305.6 95.8998C304.3 96.5998 302.9 97.0998 301.4 97.1998C295.2 97.1998 291.7 93.1998 291.7 85.4998V56.7998H284.9L284.5 55.8998L287.1 52.9998H291.7V45.6998L298.1 39.2998L299.4 39.4998V52.9998H310.7C311.6 54.0998 311.3 55.7998 310.2 56.5998L310.1 56.6998H299.6V82.0998C299.6 89.9998 302.9 91.5998 305.3 91.5998C307.5 91.4998 309.6 90.8998 311.5 89.7998L312.4 92.3998L305.6 95.8998Z" fill="black"/>
<path d="M343.3 96.1001V93.5001C349 92.8001 349.7 92.4001 349.7 86.0001V69.7001C349.7 61.5001 346.6 57.6001 340 57.6001C336 57.7001 332.3 59.5001 329.8 62.7001V86.1001C329.8 92.5001 330.2 93.2001 336.2 93.6001V96.2001H315.2V93.6001C321.2 93.2001 322 92.5001 322 86.1001V39.1001C322 32.9001 321.8 32.5001 315.4 31.8001V29.6001C320.3 28.8001 325.2 27.6001 330 26.1001V59.0001C333.5 55.5001 338.8 51.7001 344.1 51.7001C352 51.7001 357.8 56.8001 357.8 68.5001V85.7001C357.8 92.1001 358.5 92.8001 364.2 93.2001V95.8001H343.2L343.3 96.1001Z" fill="black"/>
<path d="M394.4 64.4998C392.6 58.7998 389.1 54.7998 384.2 54.7998C380.7 54.7998 377.8 57.5998 377.8 61.0998C377.8 61.2998 377.8 61.3998 377.8 61.5998C377.8 65.9998 381.8 68.1998 386.2 70.1998C393.7 73.2998 398.6 76.7998 398.6 83.6998C398.6 92.6998 390.2 97.3998 382.3 97.3998C378.3 97.4998 374.4 96.3998 371 94.0998C370 90.2998 369.5 86.3998 369.5 82.3998L372.1 81.9998C373.9 88.3998 378.3 94.0998 384.2 94.0998C388 94.1998 391.2 91.0998 391.3 87.2998C391.3 82.8998 388.4 80.6998 383.6 78.2998C377.6 75.3998 371.2 72.2998 371.2 64.5998C371.2 57.7998 377.2 51.7998 386.2 51.7998C389.2 51.7998 392.2 52.3998 395 53.5998C396 57.0998 396.7 60.5998 397.2 64.1998L394.4 64.4998Z" fill="black"/>
<path d="M449 73.8002C449 89.7002 437.3 97.2002 427.6 97.2002C415.8 97.3002 406.1 87.8002 406 76.0002C406 75.8002 406 75.6002 406 75.3002C406 59.0002 418.6 51.7002 427.6 51.7002C439.4 51.7002 449 61.3002 449 73.2002C449 73.4002 449 73.6002 449 73.8002ZM415.3 72.3002C415.3 84.7002 420.8 93.9002 428.8 93.9002C435 93.9002 440.1 89.3002 440.1 75.8002C440.1 64.3002 435.5 54.8002 426.9 54.8002C420.6 55.0002 415.3 61.2002 415.3 72.3002Z" fill="black"/>
<path d="M482.7 96.1V93.5C488.4 92.8 489.1 92.2 489.1 85.3V68.7C489.1 61.9 486.7 57.4 480.1 57.4C476 57.8 472.2 59.6 469.3 62.5V85.7C469.3 92.3 470 92.8 475.7 93.4V96H454.3V93.4C460.9 92.7 461.6 92.3 461.6 85.7V65.2C461.6 58.8 460.9 58.6 455.6 57.7V55.5C460.3 54.7 464.9 53.4 469.3 51.5V59.4C471.3 57.9 473.5 56.5 475.9 54.8C478.3 53.1 481.1 52.1 484.1 51.9C491.8 51.9 496.9 57.4 496.9 66.9V85.9C496.9 92.5 497.3 93 503.1 93.6V96.2H482.8V96.1H482.7Z" fill="black"/>
<path d="M508.6 96.1002V93.5002C514.8 92.8002 515.4 92.4002 515.4 85.6002V65.3002C515.4 59.1002 515.2 58.9002 509.2 57.8002V55.4002C514 54.7002 518.6 53.4002 523.1 51.6002V85.6002C523.1 92.2002 523.8 92.9002 530.2 93.5002V96.1002H508.6ZM513.9 38.3002C513.9 35.5002 516.2 33.3002 519 33.2002C521.7 33.2002 523.8 35.3002 523.9 38.0002C523.9 38.1002 523.9 38.2002 523.9 38.3002C523.9 41.1002 521.6 43.3002 518.8 43.4002C516.1 43.1002 514 41.0002 513.9 38.3002Z" fill="black"/>
<path d="M566.5 97.2002C564.8 97.1002 563.2 96.5002 561.9 95.4002C560.8 94.1002 560 92.6002 559.5 91.0002C555.5 93.6002 550.9 97.4002 547.8 97.4002C541.2 97.4002 535.9 92.1002 535.9 85.5002C535.9 85.4002 535.9 85.4002 535.9 85.3002C535.9 80.4002 538.5 77.4002 543.8 75.6002C549.8 73.6002 556.8 71.0002 559 69.2002V67.4002C559 60.3002 555.7 56.1002 550.6 56.1002C548.9 56.1002 547.3 56.8002 546.2 58.1002C544.7 59.9002 543.7 62.1002 543.3 64.5002C543 65.8002 541.8 66.8002 540.4 66.7002C538.1 66.5002 536.3 64.8002 536 62.5002C536 61.0002 537.3 59.9002 539.1 58.5002C543.6 55.4002 548.6 53.0002 553.9 51.7002C556.8 51.7002 559.7 52.6002 562.1 54.3002C565.6 57.2002 566.5 61.1002 566.5 66.4002V84.7002C566.5 89.1002 568.3 90.7002 570 90.7002C571.3 90.7002 572.5 90.3002 573.5 89.6002L574.4 92.2002L566.5 97.2002ZM559.5 72.5002C557.5 73.6002 552.7 75.6002 550.7 76.7002C546.9 78.5002 544.7 80.5002 544.7 84.0002C544.5 88.0002 547.6 91.3002 551.6 91.5002C551.7 91.5002 551.7 91.5002 551.8 91.5002C554.8 91.2002 557.5 90.0002 559.7 88.0002V72.6002L559.5 72.5002Z" fill="black"/>
<path d="M605.7 96.1V93.5C611.4 92.8 612.1 92.2 612.1 85.3V68.7C612.1 61.9 609.7 57.4 603.1 57.4C599 57.8 595.2 59.6 592.3 62.5V85.7C592.3 92.3 593 92.8 598.7 93.4V96H577.3V93.4C583.9 92.7 584.6 92.3 584.6 85.7V65.2C584.6 58.8 583.9 58.6 578.6 57.7V55.5C583.3 54.7 587.9 53.4 592.3 51.5V59.4C594.3 57.9 596.5 56.5 598.9 54.8C601.3 53.1 604.1 52.1 607.1 51.9C614.8 51.9 619.9 57.4 619.9 66.9V85.9C619.9 92.5 620.3 93 626.1 93.6V96.2H605.8L605.7 96.1Z" fill="black"/>
<path d="M67 102C89.6437 102 108 83.6437 108 61C108 38.3563 89.6437 20 67 20C44.3563 20 26 38.3563 26 61C26 83.6437 44.3563 102 67 102Z" fill="black"/>
<path d="M91.8 69.2C90.4 66.4 87.6 64.7 84.5 64.6L102.2 60.8L84.5 57C86.9 54.9 90.1 53.7 93.3 53.7C97.3 53.7 100.6 48.8 98.4 45.3C98.4 45.3 97.7 51 90.5 49.1C87.6 48.1 84.3 48.9 82.1 51.1L92.1 35.9L76.9 45.8C77.2 42.6 78.6 39.5 80.9 37.2C83.5 34.3 82.7 28.6 78.5 27.5C78.5 27.5 82 31.9 75.6 35.9C72.8 37.3 71.1 40.1 71 43.2L67.2 25.5L63.4 43.2C61.3 40.8 60.1 37.6 60.1 34.4C60.1 30.4 55.2 27.1 51.7 29.3C51.7 29.3 57.4 30 55.5 37.2C54.5 40.1 55.3 43.4 57.5 45.6L42.2 35.7L50.4 48.1L52.2 51C49 50.7 46 49.3 43.7 47C40.8 44.4 35.1 45.2 34 49.4C34 49.4 38.4 45.9 42.4 52.3C43.8 55.1 46.6 56.8 49.7 56.9L32 60.7L49.7 64.5C47.2 66.5 44.1 67.7 40.9 67.8C36.9 67.8 33.6 72.7 35.8 76.2C35.8 76.2 36.5 70.5 43.7 72.4C46.6 73.4 49.9 72.6 52.1 70.4L42 85.5L57.2 75.6C56.9 78.8 55.5 81.9 53.2 84.2C50.6 87.1 51.4 92.8 55.6 93.9C55.6 93.9 52.1 89.5 58.5 85.5C61.3 84.1 63 81.3 63.1 78.2L66.9 95.9L70.7 78.2C72.8 80.6 74 83.8 74 87C74 91 78.9 94.3 82.4 92.1C82.4 92.1 76.7 91.4 78.6 84.2C79.6 81.3 78.8 78 76.6 75.8L91.8 85.7L86.5 77.8L81.9 70.7C85.1 71 88.2 72.4 90.5 74.7C93.4 77.3 99.1 76.5 100.2 72.3C99.9 72.3 95.5 75.8 91.8 69.2Z" fill="white"/>
</svg>
